# Blender 4.0.2
# www.blender.org
mtllib laser_beam_pulse.mtl
o Cylinder.001
v 0.000000 0.446969 -0.161848
v -0.000000 2.006286 1.042734
v 0.087199 0.438381 -0.161848
v 0.391407 1.967736 1.042734
v 0.171048 0.412945 -0.161848
v 0.767773 1.853567 1.042734
v 0.248323 0.371641 -0.161848
v 1.114633 1.668166 1.042734
v 0.316055 0.316055 -0.161848
v 1.418659 1.418659 1.042734
v 0.371641 0.248323 -0.161848
v 1.668166 1.114633 1.042734
v 0.412945 0.171048 -0.161848
v 1.853567 0.767772 1.042734
v 0.438380 0.087199 -0.161848
v 1.967736 0.391407 1.042734
v 0.446969 0.000000 -0.161848
v 2.006286 -0.000000 1.042734
v 0.438380 -0.087199 -0.161848
v 1.967736 -0.391407 1.042734
v 0.412945 -0.171048 -0.161848
v 1.853567 -0.767773 1.042734
v 0.371641 -0.248323 -0.161848
v 1.668166 -1.114633 1.042734
v 0.316055 -0.316055 -0.161848
v 1.418659 -1.418659 1.042734
v 0.248323 -0.371641 -0.161848
v 1.114633 -1.668166 1.042734
v 0.171048 -0.412945 -0.161848
v 0.767773 -1.853567 1.042734
v 0.087199 -0.438380 -0.161848
v 0.391407 -1.967736 1.042734
v 0.000000 -0.446969 -0.161848
v -0.000000 -2.006286 1.042734
v -0.087199 -0.438380 -0.161848
v -0.391407 -1.967736 1.042734
v -0.171048 -0.412945 -0.161848
v -0.767773 -1.853567 1.042734
v -0.248323 -0.371641 -0.161848
v -1.114633 -1.668166 1.042734
v -0.316055 -0.316055 -0.161848
v -1.418659 -1.418659 1.042734
v -0.371641 -0.248323 -0.161848
v -1.668166 -1.114633 1.042734
v -0.412945 -0.171048 -0.161848
v -1.853567 -0.767773 1.042734
v -0.438380 -0.087199 -0.161848
v -1.967736 -0.391407 1.042734
v -0.446969 0.000000 -0.161848
v -2.006286 -0.000000 1.042734
v -0.438380 0.087199 -0.161848
v -1.967736 0.391407 1.042734
v -0.412945 0.171048 -0.161848
v -1.853567 0.767772 1.042734
v -0.371641 0.248323 -0.161848
v -1.668166 1.114633 1.042734
v -0.316055 0.316055 -0.161848
v -1.418659 1.418659 1.042734
v -0.248323 0.371641 -0.161848
v -1.114633 1.668166 1.042734
v -0.171048 0.412945 -0.161848
v -0.767773 1.853567 1.042734
v -0.087199 0.438381 -0.161848
v -0.391407 1.967736 1.042734
v -0.000000 1.032483 0.128782
v -0.000000 1.405778 0.439020
v -0.000000 1.721790 0.749363
v 0.335904 1.688706 0.749363
v 0.274254 1.378766 0.439020
v 0.201427 1.012644 0.128782
v 0.658900 1.590726 0.749363
v 0.537968 1.298769 0.439020
v 0.395114 0.953890 0.128782
v 0.956575 1.431616 0.749363
v 0.781008 1.168861 0.439020
v 0.573617 0.858478 0.128782
v 1.217489 1.217489 0.749363
v 0.994035 0.994035 0.439020
v 0.730076 0.730076 0.128782
v 1.431616 0.956575 0.749363
v 1.168861 0.781008 0.439020
v 0.858478 0.573617 0.128782
v 1.590726 0.658900 0.749363
v 1.298769 0.537968 0.439020
v 0.953890 0.395114 0.128782
v 1.688706 0.335904 0.749363
v 1.378766 0.274254 0.439020
v 1.012644 0.201428 0.128782
v 1.721790 -0.000000 0.749363
v 1.405778 0.000000 0.439020
v 1.032483 0.000000 0.128782
v 1.688706 -0.335905 0.749363
v 1.378766 -0.274254 0.439020
v 1.012644 -0.201427 0.128782
v 1.590726 -0.658900 0.749363
v 1.298769 -0.537968 0.439020
v 0.953890 -0.395114 0.128782
v 1.431616 -0.956575 0.749363
v 1.168861 -0.781008 0.439020
v 0.858478 -0.573617 0.128782
v 1.217489 -1.217489 0.749363
v 0.994035 -0.994035 0.439020
v 0.730076 -0.730076 0.128782
v 0.956575 -1.431616 0.749363
v 0.781008 -1.168861 0.439020
v 0.573617 -0.858478 0.128782
v 0.658900 -1.590726 0.749363
v 0.537968 -1.298769 0.439020
v 0.395114 -0.953890 0.128782
v 0.335904 -1.688706 0.749363
v 0.274254 -1.378766 0.439020
v 0.201427 -1.012644 0.128782
v -0.000000 -1.721790 0.749363
v -0.000000 -1.405778 0.439020
v -0.000000 -1.032483 0.128782
v -0.335905 -1.688706 0.749363
v -0.274254 -1.378766 0.439020
v -0.201427 -1.012644 0.128782
v -0.658900 -1.590726 0.749363
v -0.537968 -1.298769 0.439020
v -0.395114 -0.953890 0.128782
v -0.956575 -1.431616 0.749363
v -0.781008 -1.168861 0.439020
v -0.573617 -0.858478 0.128782
v -1.217489 -1.217489 0.749363
v -0.994035 -0.994035 0.439020
v -0.730076 -0.730076 0.128782
v -1.431616 -0.956575 0.749363
v -1.168861 -0.781008 0.439020
v -0.858478 -0.573617 0.128782
v -1.590726 -0.658900 0.749363
v -1.298769 -0.537968 0.439020
v -0.953890 -0.395114 0.128782
v -1.688706 -0.335905 0.749363
v -1.378766 -0.274254 0.439020
v -1.012644 -0.201427 0.128782
v -1.721790 -0.000000 0.749363
v -1.405778 0.000000 0.439020
v -1.032483 0.000000 0.128782
v -1.688706 0.335904 0.749363
v -1.378766 0.274254 0.439020
v -1.012644 0.201428 0.128782
v -1.590726 0.658900 0.749363
v -1.298769 0.537968 0.439020
v -0.953890 0.395114 0.128782
v -1.431616 0.956575 0.749363
v -1.168861 0.781008 0.439020
v -0.858478 0.573617 0.128782
v -1.217489 1.217489 0.749363
v -0.994035 0.994035 0.439020
v -0.730076 0.730076 0.128782
v -0.956575 1.431616 0.749363
v -0.781008 1.168861 0.439020
v -0.573617 0.858478 0.128782
v -0.658900 1.590726 0.749363
v -0.537968 1.298769 0.439020
v -0.395114 0.953890 0.128782
v -0.335905 1.688706 0.749363
v -0.274254 1.378766 0.439020
v -0.201427 1.012644 0.128782
vn -0.0000 0.7097 -0.7045
vn -0.0000 0.7179 -0.6962
vn 0.1401 0.7041 -0.6962
vn 0.1385 0.6961 -0.7045
vn 0.2747 0.6632 -0.6962
vn 0.2716 0.6557 -0.7045
vn 0.3988 0.5969 -0.6962
vn 0.3943 0.5901 -0.7045
vn 0.5076 0.5076 -0.6962
vn 0.5018 0.5018 -0.7045
vn 0.5969 0.3988 -0.6962
vn 0.5901 0.3943 -0.7045
vn 0.6632 0.2747 -0.6962
vn 0.6557 0.2716 -0.7045
vn 0.7041 0.1401 -0.6962
vn 0.6961 0.1385 -0.7045
vn 0.7179 -0.0000 -0.6962
vn 0.7097 -0.0000 -0.7045
vn 0.7041 -0.1401 -0.6962
vn 0.6961 -0.1385 -0.7045
vn 0.6632 -0.2747 -0.6962
vn 0.6557 -0.2716 -0.7045
vn 0.5969 -0.3988 -0.6962
vn 0.5901 -0.3943 -0.7045
vn 0.5076 -0.5076 -0.6962
vn 0.5018 -0.5018 -0.7045
vn 0.3988 -0.5969 -0.6962
vn 0.3943 -0.5901 -0.7045
vn 0.2747 -0.6632 -0.6962
vn 0.2716 -0.6557 -0.7045
vn 0.1401 -0.7041 -0.6962
vn 0.1385 -0.6961 -0.7045
vn -0.0000 -0.7179 -0.6962
vn -0.0000 -0.7097 -0.7045
vn -0.1401 -0.7041 -0.6962
vn -0.1385 -0.6961 -0.7045
vn -0.2747 -0.6632 -0.6962
vn -0.2716 -0.6557 -0.7045
vn -0.3988 -0.5969 -0.6962
vn -0.3943 -0.5901 -0.7045
vn -0.5076 -0.5076 -0.6962
vn -0.5018 -0.5018 -0.7045
vn -0.5969 -0.3988 -0.6962
vn -0.5901 -0.3943 -0.7045
vn -0.6632 -0.2747 -0.6962
vn -0.6557 -0.2716 -0.7045
vn -0.7041 -0.1401 -0.6962
vn -0.6961 -0.1385 -0.7045
vn -0.7179 -0.0000 -0.6962
vn -0.7097 -0.0000 -0.7045
vn -0.7041 0.1401 -0.6962
vn -0.6961 0.1385 -0.7045
vn -0.6632 0.2747 -0.6962
vn -0.6557 0.2716 -0.7045
vn -0.5969 0.3988 -0.6962
vn -0.5901 0.3943 -0.7045
vn -0.5076 0.5076 -0.6962
vn -0.5018 0.5018 -0.7045
vn -0.3988 0.5969 -0.6962
vn -0.3943 0.5901 -0.7045
vn -0.2747 0.6632 -0.6962
vn -0.2716 0.6557 -0.7045
vn -0.1401 0.7041 -0.6962
vn -0.1385 0.6961 -0.7045
vn -0.0867 0.4361 -0.8957
vn -0.1074 0.5400 -0.8348
vn -0.0000 0.5506 -0.8348
vn -0.0000 0.4446 -0.8957
vn -0.1311 0.6590 -0.7406
vn -0.0000 0.6719 -0.7406
vn -0.1701 0.4108 -0.8957
vn -0.2107 0.5087 -0.8348
vn -0.2571 0.6208 -0.7406
vn -0.2470 0.3697 -0.8957
vn -0.3059 0.4578 -0.8348
vn -0.3733 0.5587 -0.7406
vn -0.3144 0.3144 -0.8957
vn -0.3894 0.3894 -0.8348
vn -0.4751 0.4751 -0.7406
vn -0.3697 0.2470 -0.8957
vn -0.4578 0.3059 -0.8348
vn -0.5587 0.3733 -0.7406
vn -0.4108 0.1701 -0.8957
vn -0.5087 0.2107 -0.8348
vn -0.6208 0.2571 -0.7406
vn -0.4361 0.0867 -0.8957
vn -0.5400 0.1074 -0.8348
vn -0.6590 0.1311 -0.7406
vn -0.4446 -0.0000 -0.8957
vn -0.5506 -0.0000 -0.8348
vn -0.6719 -0.0000 -0.7406
vn -0.4361 -0.0867 -0.8957
vn -0.5400 -0.1074 -0.8348
vn -0.6590 -0.1311 -0.7406
vn -0.4108 -0.1701 -0.8957
vn -0.5087 -0.2107 -0.8348
vn -0.6208 -0.2571 -0.7406
vn -0.3697 -0.2470 -0.8957
vn -0.4578 -0.3059 -0.8348
vn -0.5587 -0.3733 -0.7406
vn -0.3144 -0.3144 -0.8957
vn -0.3894 -0.3894 -0.8348
vn -0.4751 -0.4751 -0.7406
vn -0.2470 -0.3697 -0.8957
vn -0.3059 -0.4578 -0.8348
vn -0.3733 -0.5587 -0.7406
vn -0.1701 -0.4108 -0.8957
vn -0.2107 -0.5087 -0.8348
vn -0.2571 -0.6208 -0.7406
vn -0.0867 -0.4361 -0.8957
vn -0.1074 -0.5400 -0.8348
vn -0.1311 -0.6590 -0.7406
vn -0.0000 -0.4446 -0.8957
vn -0.0000 -0.5506 -0.8348
vn -0.0000 -0.6719 -0.7406
vn 0.0867 -0.4361 -0.8957
vn 0.1074 -0.5400 -0.8348
vn 0.1311 -0.6590 -0.7406
vn 0.1701 -0.4108 -0.8957
vn 0.2107 -0.5087 -0.8348
vn 0.2571 -0.6208 -0.7406
vn 0.2470 -0.3697 -0.8957
vn 0.3059 -0.4578 -0.8348
vn 0.3733 -0.5587 -0.7406
vn 0.3144 -0.3144 -0.8957
vn 0.3894 -0.3894 -0.8348
vn 0.4751 -0.4751 -0.7406
vn 0.3697 -0.2470 -0.8957
vn 0.4578 -0.3059 -0.8348
vn 0.5587 -0.3733 -0.7406
vn 0.4108 -0.1701 -0.8957
vn 0.5087 -0.2107 -0.8348
vn 0.6208 -0.2571 -0.7406
vn 0.4361 -0.0867 -0.8957
vn 0.5400 -0.1074 -0.8348
vn 0.6590 -0.1311 -0.7406
vn 0.4446 -0.0000 -0.8957
vn 0.5506 -0.0000 -0.8348
vn 0.6719 -0.0000 -0.7406
vn 0.4361 0.0867 -0.8957
vn 0.5400 0.1074 -0.8348
vn 0.6590 0.1311 -0.7406
vn 0.4108 0.1701 -0.8957
vn 0.5087 0.2107 -0.8348
vn 0.6208 0.2571 -0.7406
vn 0.3697 0.2470 -0.8957
vn 0.4578 0.3059 -0.8348
vn 0.5587 0.3733 -0.7406
vn 0.3144 0.3144 -0.8957
vn 0.3894 0.3894 -0.8348
vn 0.4751 0.4751 -0.7406
vn 0.2470 0.3697 -0.8957
vn 0.3059 0.4578 -0.8348
vn 0.3733 0.5587 -0.7406
vn 0.1701 0.4108 -0.8957
vn 0.2107 0.5087 -0.8348
vn 0.2571 0.6208 -0.7406
vn 0.0867 0.4361 -0.8957
vn 0.1074 0.5400 -0.8348
vn 0.1311 0.6590 -0.7406
vt 1.000000 0.750000
vt 1.000000 1.000000
vt 0.968750 1.000000
vt 0.968750 0.750000
vt 0.937500 1.000000
vt 0.937500 0.750000
vt 0.906250 1.000000
vt 0.906250 0.750000
vt 0.875000 1.000000
vt 0.875000 0.750000
vt 0.843750 1.000000
vt 0.843750 0.750000
vt 0.812500 1.000000
vt 0.812500 0.750000
vt 0.781250 1.000000
vt 0.781250 0.750000
vt 0.750000 1.000000
vt 0.750000 0.750000
vt 0.718750 1.000000
vt 0.718750 0.750000
vt 0.687500 1.000000
vt 0.687500 0.750000
vt 0.656250 1.000000
vt 0.656250 0.750000
vt 0.625000 1.000000
vt 0.625000 0.750000
vt 0.593750 1.000000
vt 0.593750 0.750000
vt 0.562500 1.000000
vt 0.562500 0.750000
vt 0.531250 1.000000
vt 0.531250 0.750000
vt 0.500000 1.000000
vt 0.500000 0.750000
vt 0.468750 1.000000
vt 0.468750 0.750000
vt 0.437500 1.000000
vt 0.437500 0.750000
vt 0.406250 1.000000
vt 0.406250 0.750000
vt 0.375000 1.000000
vt 0.375000 0.750000
vt 0.343750 1.000000
vt 0.343750 0.750000
vt 0.312500 1.000000
vt 0.312500 0.750000
vt 0.281250 1.000000
vt 0.281250 0.750000
vt 0.250000 1.000000
vt 0.250000 0.750000
vt 0.218750 1.000000
vt 0.218750 0.750000
vt 0.187500 1.000000
vt 0.187500 0.750000
vt 0.156250 1.000000
vt 0.156250 0.750000
vt 0.125000 1.000000
vt 0.125000 0.750000
vt 0.093750 1.000000
vt 0.093750 0.750000
vt 0.062500 1.000000
vt 0.062500 0.750000
vt 0.031250 1.000000
vt 0.031250 0.750000
vt 0.000000 1.000000
vt 0.000000 0.750000
vt 0.031250 0.000000
vt 0.031250 0.250000
vt 0.000000 0.250000
vt 0.000000 0.000000
vt 0.031250 0.500000
vt 0.000000 0.500000
vt 0.062500 0.000000
vt 0.062500 0.250000
vt 0.062500 0.500000
vt 0.093750 0.000000
vt 0.093750 0.250000
vt 0.093750 0.500000
vt 0.125000 0.000000
vt 0.125000 0.250000
vt 0.125000 0.500000
vt 0.156250 0.000000
vt 0.156250 0.250000
vt 0.156250 0.500000
vt 0.187500 0.000000
vt 0.187500 0.250000
vt 0.187500 0.500000
vt 0.218750 0.000000
vt 0.218750 0.250000
vt 0.218750 0.500000
vt 0.250000 0.000000
vt 0.250000 0.250000
vt 0.250000 0.500000
vt 0.281250 0.000000
vt 0.281250 0.250000
vt 0.281250 0.500000
vt 0.312500 0.000000
vt 0.312500 0.250000
vt 0.312500 0.500000
vt 0.343750 0.000000
vt 0.343750 0.250000
vt 0.343750 0.500000
vt 0.375000 0.000000
vt 0.375000 0.250000
vt 0.375000 0.500000
vt 0.406250 0.000000
vt 0.406250 0.250000
vt 0.406250 0.500000
vt 0.437500 0.000000
vt 0.437500 0.250000
vt 0.437500 0.500000
vt 0.468750 0.000000
vt 0.468750 0.250000
vt 0.468750 0.500000
vt 0.500000 0.000000
vt 0.500000 0.250000
vt 0.500000 0.500000
vt 0.531250 0.000000
vt 0.531250 0.250000
vt 0.531250 0.500000
vt 0.562500 0.000000
vt 0.562500 0.250000
vt 0.562500 0.500000
vt 0.593750 0.000000
vt 0.593750 0.250000
vt 0.593750 0.500000
vt 0.625000 0.000000
vt 0.625000 0.250000
vt 0.625000 0.500000
vt 0.656250 0.000000
vt 0.656250 0.250000
vt 0.656250 0.500000
vt 0.687500 0.000000
vt 0.687500 0.250000
vt 0.687500 0.500000
vt 0.718750 0.000000
vt 0.718750 0.250000
vt 0.718750 0.500000
vt 0.750000 0.000000
vt 0.750000 0.250000
vt 0.750000 0.500000
vt 0.781250 0.000000
vt 0.781250 0.250000
vt 0.781250 0.500000
vt 0.812500 0.000000
vt 0.812500 0.250000
vt 0.812500 0.500000
vt 0.843750 0.000000
vt 0.843750 0.250000
vt 0.843750 0.500000
vt 0.875000 0.000000
vt 0.875000 0.250000
vt 0.875000 0.500000
vt 0.906250 0.000000
vt 0.906250 0.250000
vt 0.906250 0.500000
vt 0.937500 0.000000
vt 0.937500 0.250000
vt 0.937500 0.500000
vt 0.968750 0.000000
vt 0.968750 0.250000
vt 0.968750 0.500000
vt 1.000000 0.000000
vt 1.000000 0.250000
vt 1.000000 0.500000
s 1
f 67/1/1 2/2/2 4/3/3 68/4/4
f 68/4/4 4/3/3 6/5/5 71/6/6
f 71/6/6 6/5/5 8/7/7 74/8/8
f 74/8/8 8/7/7 10/9/9 77/10/10
f 77/10/10 10/9/9 12/11/11 80/12/12
f 80/12/12 12/11/11 14/13/13 83/14/14
f 83/14/14 14/13/13 16/15/15 86/16/16
f 86/16/16 16/15/15 18/17/17 89/18/18
f 89/18/18 18/17/17 20/19/19 92/20/20
f 92/20/20 20/19/19 22/21/21 95/22/22
f 95/22/22 22/21/21 24/23/23 98/24/24
f 98/24/24 24/23/23 26/25/25 101/26/26
f 101/26/26 26/25/25 28/27/27 104/28/28
f 104/28/28 28/27/27 30/29/29 107/30/30
f 107/30/30 30/29/29 32/31/31 110/32/32
f 110/32/32 32/31/31 34/33/33 113/34/34
f 113/34/34 34/33/33 36/35/35 116/36/36
f 116/36/36 36/35/35 38/37/37 119/38/38
f 119/38/38 38/37/37 40/39/39 122/40/40
f 122/40/40 40/39/39 42/41/41 125/42/42
f 125/42/42 42/41/41 44/43/43 128/44/44
f 128/44/44 44/43/43 46/45/45 131/46/46
f 131/46/46 46/45/45 48/47/47 134/48/48
f 134/48/48 48/47/47 50/49/49 137/50/50
f 137/50/50 50/49/49 52/51/51 140/52/52
f 140/52/52 52/51/51 54/53/53 143/54/54
f 143/54/54 54/53/53 56/55/55 146/56/56
f 146/56/56 56/55/55 58/57/57 149/58/58
f 149/58/58 58/57/57 60/59/59 152/60/60
f 152/60/60 60/59/59 62/61/61 155/62/62
f 155/62/62 62/61/61 64/63/63 158/64/64
f 158/64/64 64/63/63 2/65/2 67/66/1
f 63/67/65 160/68/66 65/69/67 1/70/68
f 160/68/66 159/71/69 66/72/70 65/69/67
f 159/71/69 158/64/64 67/66/1 66/72/70
f 61/73/71 157/74/72 160/68/66 63/67/65
f 157/74/72 156/75/73 159/71/69 160/68/66
f 156/75/73 155/62/62 158/64/64 159/71/69
f 59/76/74 154/77/75 157/74/72 61/73/71
f 154/77/75 153/78/76 156/75/73 157/74/72
f 153/78/76 152/60/60 155/62/62 156/75/73
f 57/79/77 151/80/78 154/77/75 59/76/74
f 151/80/78 150/81/79 153/78/76 154/77/75
f 150/81/79 149/58/58 152/60/60 153/78/76
f 55/82/80 148/83/81 151/80/78 57/79/77
f 148/83/81 147/84/82 150/81/79 151/80/78
f 147/84/82 146/56/56 149/58/58 150/81/79
f 53/85/83 145/86/84 148/83/81 55/82/80
f 145/86/84 144/87/85 147/84/82 148/83/81
f 144/87/85 143/54/54 146/56/56 147/84/82
f 51/88/86 142/89/87 145/86/84 53/85/83
f 142/89/87 141/90/88 144/87/85 145/86/84
f 141/90/88 140/52/52 143/54/54 144/87/85
f 49/91/89 139/92/90 142/89/87 51/88/86
f 139/92/90 138/93/91 141/90/88 142/89/87
f 138/93/91 137/50/50 140/52/52 141/90/88
f 47/94/92 136/95/93 139/92/90 49/91/89
f 136/95/93 135/96/94 138/93/91 139/92/90
f 135/96/94 134/48/48 137/50/50 138/93/91
f 45/97/95 133/98/96 136/95/93 47/94/92
f 133/98/96 132/99/97 135/96/94 136/95/93
f 132/99/97 131/46/46 134/48/48 135/96/94
f 43/100/98 130/101/99 133/98/96 45/97/95
f 130/101/99 129/102/100 132/99/97 133/98/96
f 129/102/100 128/44/44 131/46/46 132/99/97
f 41/103/101 127/104/102 130/101/99 43/100/98
f 127/104/102 126/105/103 129/102/100 130/101/99
f 126/105/103 125/42/42 128/44/44 129/102/100
f 39/106/104 124/107/105 127/104/102 41/103/101
f 124/107/105 123/108/106 126/105/103 127/104/102
f 123/108/106 122/40/40 125/42/42 126/105/103
f 37/109/107 121/110/108 124/107/105 39/106/104
f 121/110/108 120/111/109 123/108/106 124/107/105
f 120/111/109 119/38/38 122/40/40 123/108/106
f 35/112/110 118/113/111 121/110/108 37/109/107
f 118/113/111 117/114/112 120/111/109 121/110/108
f 117/114/112 116/36/36 119/38/38 120/111/109
f 33/115/113 115/116/114 118/113/111 35/112/110
f 115/116/114 114/117/115 117/114/112 118/113/111
f 114/117/115 113/34/34 116/36/36 117/114/112
f 31/118/116 112/119/117 115/116/114 33/115/113
f 112/119/117 111/120/118 114/117/115 115/116/114
f 111/120/118 110/32/32 113/34/34 114/117/115
f 29/121/119 109/122/120 112/119/117 31/118/116
f 109/122/120 108/123/121 111/120/118 112/119/117
f 108/123/121 107/30/30 110/32/32 111/120/118
f 27/124/122 106/125/123 109/122/120 29/121/119
f 106/125/123 105/126/124 108/123/121 109/122/120
f 105/126/124 104/28/28 107/30/30 108/123/121
f 25/127/125 103/128/126 106/125/123 27/124/122
f 103/128/126 102/129/127 105/126/124 106/125/123
f 102/129/127 101/26/26 104/28/28 105/126/124
f 23/130/128 100/131/129 103/128/126 25/127/125
f 100/131/129 99/132/130 102/129/127 103/128/126
f 99/132/130 98/24/24 101/26/26 102/129/127
f 21/133/131 97/134/132 100/131/129 23/130/128
f 97/134/132 96/135/133 99/132/130 100/131/129
f 96/135/133 95/22/22 98/24/24 99/132/130
f 19/136/134 94/137/135 97/134/132 21/133/131
f 94/137/135 93/138/136 96/135/133 97/134/132
f 93/138/136 92/20/20 95/22/22 96/135/133
f 17/139/137 91/140/138 94/137/135 19/136/134
f 91/140/138 90/141/139 93/138/136 94/137/135
f 90/141/139 89/18/18 92/20/20 93/138/136
f 15/142/140 88/143/141 91/140/138 17/139/137
f 88/143/141 87/144/142 90/141/139 91/140/138
f 87/144/142 86/16/16 89/18/18 90/141/139
f 13/145/143 85/146/144 88/143/141 15/142/140
f 85/146/144 84/147/145 87/144/142 88/143/141
f 84/147/145 83/14/14 86/16/16 87/144/142
f 11/148/146 82/149/147 85/146/144 13/145/143
f 82/149/147 81/150/148 84/147/145 85/146/144
f 81/150/148 80/12/12 83/14/14 84/147/145
f 9/151/149 79/152/150 82/149/147 11/148/146
f 79/152/150 78/153/151 81/150/148 82/149/147
f 78/153/151 77/10/10 80/12/12 81/150/148
f 7/154/152 76/155/153 79/152/150 9/151/149
f 76/155/153 75/156/154 78/153/151 79/152/150
f 75/156/154 74/8/8 77/10/10 78/153/151
f 5/157/155 73/158/156 76/155/153 7/154/152
f 73/158/156 72/159/157 75/156/154 76/155/153
f 72/159/157 71/6/6 74/8/8 75/156/154
f 3/160/158 70/161/159 73/158/156 5/157/155
f 70/161/159 69/162/160 72/159/157 73/158/156
f 69/162/160 68/4/4 71/6/6 72/159/157
f 1/163/68 65/164/67 70/161/159 3/160/158
f 65/164/67 66/165/70 69/162/160 70/161/159
f 66/165/70 67/1/1 68/4/4 69/162/160
