# Blender 4.0.2
# www.blender.org
mtllib rocket.mtl
o missile
v 0.000000 0.000000 3.966443
v 0.485297 0.000000 3.187114
v 0.343157 -0.343157 3.187113
v 0.000000 -0.485297 3.187113
v -0.343157 -0.343157 3.187113
v -0.485297 0.000000 3.187114
v -0.343157 0.343158 3.187114
v 0.000000 0.485298 3.187114
v 0.343157 0.343157 3.187114
v 0.734145 0.000000 2.412010
v 0.519121 -0.519119 2.412010
v 0.000000 -0.734146 2.412010
v -0.519121 -0.519119 2.412010
v -0.734145 0.000000 2.412010
v -0.519121 0.519120 2.412010
v 0.000000 0.734146 2.412010
v 0.519121 0.519120 2.412010
v 0.734145 0.000001 -3.966443
v 0.519121 -0.519119 -3.966443
v 0.000000 -0.734145 -3.966443
v -0.519119 -0.519119 -3.966443
v -0.734145 0.000001 -3.966443
v -0.519119 0.519120 -3.966443
v 0.000000 0.734147 -3.966443
v 0.519121 0.519120 -3.966443
v 0.000000 0.000001 -3.827447
v -0.243967 0.596847 -2.772193
v 0.000000 1.959256 -3.113621
v 0.000000 1.959256 -3.936454
v -0.243967 0.596847 -3.829990
v 0.243967 0.596846 -2.772193
v 0.243967 0.596847 -3.829990
v 0.000000 0.655642 -2.211291
v 0.000000 0.596846 2.359400
v 0.000000 1.422142 1.787347
v 0.000000 1.422142 1.561278
v -0.130887 0.596846 1.667742
v 0.130887 0.596846 1.667742
v -0.596845 -0.243968 -2.772193
v -1.959256 0.000000 -3.113621
v -1.959256 0.000001 -3.936455
v -0.596845 -0.243968 -3.829990
v -0.596845 0.243969 -2.772193
v -0.596845 0.243969 -3.829990
v -0.655642 0.000000 -2.211291
v -0.596845 0.000000 2.359400
v -1.422142 0.000000 1.787347
v -1.422142 0.000000 1.561278
v -0.596845 -0.130887 1.667742
v -0.596845 0.130887 1.667742
v 0.243967 -0.596846 -2.772193
v 0.000000 -1.959255 -3.113621
v 0.000000 -1.959255 -3.936454
v 0.243967 -0.596846 -3.829990
v -0.243967 -0.596845 -2.772193
v -0.243967 -0.596845 -3.829990
v 0.000000 -0.655641 -2.211291
v 0.000000 -0.596845 2.359400
v 0.000000 -1.422141 1.787347
v 0.000000 -1.422141 1.561278
v 0.130887 -0.596845 1.667742
v -0.130887 -0.596845 1.667742
v 0.596845 0.243969 -2.772193
v 1.959256 0.000000 -3.113621
v 1.959256 0.000000 -3.936454
v 0.596845 0.243969 -3.829990
v 0.596845 -0.243968 -2.772193
v 0.596845 -0.243968 -3.829990
v 0.655642 0.000001 -2.211291
v 0.596845 0.000001 2.359400
v 1.422141 0.000001 1.787347
v 1.422141 0.000001 1.561278
v 0.596845 0.130888 1.667742
v 0.596845 -0.130886 1.667742
v 0.343157 -0.343157 3.187113
v -0.343157 -0.343157 3.187113
v -0.343157 0.343158 3.187114
v 0.343157 0.343157 3.187114
v 0.343157 -0.343157 3.187113
v 0.519121 -0.519119 2.412010
v 0.519121 -0.519119 2.412010
v -0.343157 -0.343157 3.187113
v -0.519121 -0.519119 2.412010
v -0.519121 -0.519119 2.412010
v -0.343157 0.343158 3.187114
v -0.519121 0.519120 2.412010
v -0.519121 0.519120 2.412010
v 0.343157 0.343157 3.187114
v 0.519121 0.519120 2.412010
v 0.519121 0.519120 2.412010
v 0.734145 0.000000 2.412010
v 0.734145 0.000000 2.412010
v 0.519121 -0.519119 2.412010
v 0.519121 -0.519119 2.412010
v 0.000000 -0.734146 2.412010
v 0.000000 -0.734146 2.412010
v 0.000000 -0.734146 2.412010
v 0.000000 -0.734145 -3.966443
v 0.000000 -0.734146 2.412010
v -0.519121 -0.519119 2.412010
v -0.519121 -0.519119 2.412010
v -0.734145 0.000000 2.412010
v -0.734145 0.000000 2.412010
v -0.734145 0.000000 2.412010
v -0.734145 0.000000 2.412010
v -0.519121 0.519120 2.412010
v -0.519121 0.519120 2.412010
v 0.000000 0.734146 2.412010
v 0.000000 0.734146 2.412010
v 0.000000 0.734146 2.412010
v 0.000000 0.734146 2.412010
v 0.519121 0.519120 2.412010
v 0.519121 0.519120 2.412010
v 0.734145 0.000000 2.412010
v 0.734145 0.000000 2.412010
v 0.734145 0.000001 -3.966443
v 0.519121 -0.519119 -3.966443
v 0.519121 -0.519119 -3.966443
v 0.000000 -0.734145 -3.966443
v 0.000000 -0.734145 -3.966443
v -0.519119 -0.519119 -3.966443
v -0.519119 -0.519119 -3.966443
v -0.734145 0.000001 -3.966443
v -0.734145 0.000001 -3.966443
v -0.519119 0.519120 -3.966443
v -0.519119 0.519120 -3.966443
v 0.000000 0.734147 -3.966443
v 0.000000 0.734147 -3.966443
v 0.519121 0.519120 -3.966443
v 0.519121 0.519120 -3.966443
v 0.734145 0.000001 -3.966443
v 0.243967 0.596847 -3.829990
v 0.130887 0.596846 1.667742
v -0.596845 0.243969 -3.829990
v -0.596845 0.130887 1.667742
v -0.243967 -0.596845 -3.829990
v 0.130887 -0.596845 1.667742
v 0.596845 -0.243968 -3.829990
v 0.596845 0.130888 1.667742
vn -0.0000 -0.0000 1.0000
vn 0.8535 -0.3535 0.3828
vn 0.9124 -0.0000 0.4093
vn -0.0000 -0.9124 0.4093
vn 0.3317 -0.8008 0.4987
vn -0.3535 -0.8535 0.3828
vn -0.9124 -0.0000 0.4093
vn -0.8008 -0.3317 0.4987
vn -0.8535 0.3535 0.3828
vn -0.0000 0.9124 0.4093
vn -0.3317 0.8008 0.4987
vn 0.3535 0.8535 0.3828
vn 0.8008 0.3317 0.4987
vn 0.8857 -0.3669 0.2844
vn 0.9521 -0.0000 0.3057
vn 0.3669 -0.8857 0.2844
vn -0.0000 -0.9521 0.3057
vn -0.3669 -0.8857 0.2844
vn -0.8857 -0.3669 0.2844
vn -0.9521 -0.0000 0.3057
vn -0.8857 0.3669 0.2844
vn -0.3669 0.8857 0.2844
vn -0.0000 0.9521 0.3057
vn 0.3669 0.8857 0.2844
vn 0.8857 0.3669 0.2844
vn 0.9239 -0.3827 -0.0000
vn 0.7071 -0.7071 -0.0000
vn 1.0000 -0.0000 -0.0000
vn 0.3827 -0.9239 -0.0000
vn -0.3827 -0.9239 -0.0000
vn -0.7071 -0.7071 -0.0000
vn -0.9239 -0.3827 -0.0000
vn -1.0000 -0.0000 -0.0000
vn -0.9239 0.3827 -0.0000
vn -0.7071 0.7071 -0.0000
vn -0.3827 0.9239 -0.0000
vn -0.0000 1.0000 -0.0000
vn 0.3827 0.9239 -0.0000
vn 0.7071 0.7071 -0.0000
vn 0.9239 0.3827 -0.0000
vn -0.0000 -0.0000 -1.0000
vn -0.1855 0.0768 -0.9796
vn -0.0768 0.1855 -0.9796
vn 0.0768 0.1855 -0.9796
vn 0.1855 0.0768 -0.9796
vn 0.1855 -0.0768 -0.9796
vn 0.0768 -0.1855 -0.9796
vn -0.0768 -0.1855 -0.9796
vn -0.1855 -0.0768 -0.9796
vn -0.7566 0.0848 -0.6484
vn -0.0000 0.9455 0.3256
vn -0.0000 0.8170 -0.5766
vn -0.9535 0.2219 0.2041
vn 0.9535 0.2219 0.2041
vn 0.9843 0.1763 -0.0000
vn -0.0000 0.5691 0.8222
vn -0.8185 0.0202 -0.5741
vn -0.0000 0.9160 0.4011
vn -0.0000 0.7999 -0.6001
vn -0.0000 0.5697 0.8219
vn 0.9789 0.1328 0.1551
vn -0.0000 -0.0779 -0.9970
vn -0.0000 -0.1279 -0.9918
vn -0.0848 -0.7566 -0.6484
vn -0.9455 -0.0000 0.3256
vn -0.8170 -0.0000 -0.5766
vn -0.2219 -0.9535 0.2041
vn -0.2219 0.9535 0.2041
vn -0.1763 0.9843 -0.0000
vn -0.5691 -0.0000 0.8222
vn -0.0202 -0.8185 -0.5741
vn -0.9160 -0.0000 0.4011
vn -0.7999 -0.0000 -0.6001
vn -0.5697 -0.0000 0.8219
vn -0.1328 0.9789 0.1551
vn 0.0779 -0.0000 -0.9970
vn 0.1279 -0.0000 -0.9918
vn 0.7566 -0.0848 -0.6484
vn -0.0000 -0.9455 0.3256
vn -0.0000 -0.8170 -0.5766
vn 0.9535 -0.2219 0.2041
vn -0.9535 -0.2219 0.2041
vn -0.9843 -0.1763 -0.0000
vn -0.0000 -0.5691 0.8222
vn 0.9789 -0.1328 0.1551
vn -0.0000 -0.9160 0.4011
vn -0.0000 -0.7999 -0.6001
vn -0.0000 -0.5697 0.8219
vn -0.8185 -0.0202 -0.5741
vn -0.0000 0.0779 -0.9970
vn -0.0000 0.1279 -0.9918
vn 0.0848 0.7566 -0.6484
vn 0.9455 -0.0000 0.3256
vn 0.8170 -0.0000 -0.5766
vn 0.2219 0.9535 0.2041
vn 0.2219 -0.9535 0.2041
vn 0.1763 -0.9843 -0.0000
vn 0.5691 -0.0000 0.8222
vn 0.1328 0.9789 0.1551
vn 0.9160 -0.0000 0.4011
vn 0.7999 -0.0000 -0.6001
vn 0.5697 -0.0000 0.8219
vn 0.0202 -0.8185 -0.5741
vn -0.0779 -0.0000 -0.9970
vn -0.1279 -0.0000 -0.9918
vt 0.069796 0.468617
vt 0.107546 0.612141
vt 0.069794 0.615245
vt 0.032043 0.612140
vt 0.119627 0.728875
vt 0.069793 0.733155
vt 0.019959 0.728874
vt 0.513027 0.010310
vt 0.543984 0.986903
vt 0.513027 0.986903
vt 0.543984 0.010310
vt 0.574941 0.010310
vt 0.574941 0.986903
vt 0.327284 0.010310
vt 0.358241 0.986903
vt 0.327284 0.986903
vt 0.358241 0.010310
vt 0.389198 0.010310
vt 0.389198 0.986903
vt 0.420156 0.986903
vt 0.420156 0.010310
vt 0.451113 0.010310
vt 0.451113 0.986903
vt 0.482070 0.986903
vt 0.482070 0.010310
vt 0.134993 0.866807
vt 0.056830 0.866807
vt 0.079780 0.811630
vt 0.134993 0.788806
vt 0.190220 0.811630
vt 0.213090 0.866807
vt 0.190220 0.922018
vt 0.134993 0.944895
vt 0.079780 0.922018
vt 0.099305 0.388484
vt 0.193484 0.461912
vt 0.096888 0.461911
vt 0.251991 0.388485
vt 0.311360 0.396954
vt 0.014351 0.141205
vt 0.089645 0.119256
vt 0.090307 0.164477
vt 0.020053 0.021683
vt 0.072469 0.395824
vt 0.014350 0.175278
s 1
usemtl rockets
f 1/1/1 3/2/2 2/3/3
f 1/1/1 4/3/4 75/4/5
f 1/1/1 5/2/6 4/3/4
f 1/1/1 6/3/7 76/4/8
f 1/1/1 7/2/9 6/3/7
f 1/1/1 8/3/10 77/4/11
f 1/1/1 9/2/12 8/3/10
f 1/1/1 2/3/3 78/4/13
f 2/3/3 11/5/14 10/6/15
f 2/3/3 3/2/2 11/5/14
f 79/4/16 4/3/4 80/7/16
f 81/7/16 4/3/4 12/6/17
f 4/3/4 13/5/18 12/6/17
f 4/3/4 5/2/6 13/5/18
f 82/4/19 6/3/7 83/7/19
f 84/7/19 6/3/7 14/6/20
f 6/3/7 15/5/21 14/6/20
f 6/3/7 7/2/9 15/5/21
f 85/4/22 8/3/10 86/7/22
f 87/7/22 8/3/10 16/6/23
f 8/3/10 17/5/24 16/6/23
f 8/3/10 9/2/12 17/5/24
f 88/4/25 2/3/3 89/7/25
f 90/7/25 2/3/3 10/6/15
f 91/8/26 19/9/27 18/10/28
f 92/8/26 93/11/26 19/9/27
f 94/11/29 95/12/29 19/9/27
f 19/9/27 96/12/29 20/13/29
f 97/14/30 21/15/31 98/16/30
f 99/14/30 100/17/30 21/15/31
f 101/17/32 102/18/32 21/15/31
f 21/15/31 103/18/32 22/19/33
f 104/18/34 23/20/35 22/19/33
f 105/18/34 106/21/34 23/20/35
f 107/21/36 108/22/36 23/20/35
f 23/20/35 109/22/36 24/23/37
f 110/22/38 25/24/39 24/23/37
f 111/22/38 112/25/38 25/24/39
f 113/25/40 114/8/40 25/24/39
f 25/24/39 115/8/40 18/10/28
f 26/26/41 116/27/42 117/28/42
f 26/26/41 118/28/43 119/29/43
f 26/26/41 120/29/44 121/30/44
f 26/26/41 122/30/45 123/31/45
f 26/26/41 124/31/46 125/32/46
f 26/26/41 126/32/47 127/33/47
f 26/26/41 128/33/48 129/34/48
f 26/26/41 130/34/49 131/27/49
f 30/35/50 28/36/51 29/37/52
f 28/36/51 30/35/50 27/38/53
f 28/36/51 31/38/54 32/35/55
f 32/35/55 29/37/52 28/36/51
f 28/36/51 33/39/56 31/38/54
f 28/36/51 27/38/53 33/39/56
f 37/40/57 35/41/58 36/42/59
f 35/41/58 37/40/57 34/43/60
f 35/41/58 34/43/60 38/40/61
f 38/40/61 36/42/59 35/41/58
f 29/37/52 132/44/62 30/35/50
f 36/42/59 133/45/63 37/40/57
f 42/35/64 40/36/65 41/37/66
f 40/36/65 42/35/64 39/38/67
f 40/36/65 43/38/68 44/35/69
f 44/35/69 41/37/66 40/36/65
f 40/36/65 45/39/70 43/38/68
f 40/36/65 39/38/67 45/39/70
f 49/40/71 47/41/72 48/42/73
f 47/41/72 49/40/71 46/43/74
f 47/41/72 46/43/74 50/40/75
f 50/40/75 48/42/73 47/41/72
f 41/37/66 134/44/76 42/35/64
f 48/42/73 135/45/77 49/40/71
f 54/35/78 52/36/79 53/37/80
f 52/36/79 54/35/78 51/38/81
f 52/36/79 55/38/82 56/35/83
f 56/35/83 53/37/80 52/36/79
f 52/36/79 57/39/84 55/38/82
f 52/36/79 51/38/81 57/39/84
f 61/40/85 59/41/86 60/42/87
f 59/41/86 61/40/85 58/43/88
f 59/41/86 58/43/88 62/40/89
f 62/40/89 60/42/87 59/41/86
f 53/37/80 136/44/90 54/35/78
f 60/42/87 62/40/89 137/45/91
f 66/35/92 64/36/93 65/37/94
f 64/36/93 66/35/92 63/38/95
f 64/36/93 67/38/96 68/35/97
f 68/35/97 65/37/94 64/36/93
f 64/36/93 69/39/98 67/38/96
f 64/36/93 63/38/95 69/39/98
f 73/40/99 71/41/100 72/42/101
f 71/41/100 73/40/99 70/43/102
f 71/41/100 70/43/102 74/40/103
f 74/40/103 72/42/101 71/41/100
f 65/37/94 138/44/104 66/35/92
f 72/42/101 74/40/103 139/45/105
